<svg width="300" height="400" xmlns="http://www.w3.org/2000/svg">
  <rect width="300" height="400" fill="#f9fafb"/>
  <!-- Left Column (Sidebar) -->
  <rect x="0" y="0" width="100" height="400" fill="#e5e7eb"/>
  <rect x="15" y="20" width="70" height="70" fill="#1f2937" rx="35"/>
  <rect x="15" y="110" width="70" height="12" fill="#1f2937" rx="2"/>
  <rect x="15" y="135" width="70" height="8" fill="#6b7280" rx="2"/>
  <rect x="15" y="150" width="70" height="8" fill="#9ca3af" rx="2"/>
  <rect x="15" y="180" width="70" height="12" fill="#1f2937" rx="2"/>
  <rect x="15" y="205" width="70" height="6" fill="#6b7280" rx="2"/>
  <rect x="15" y="218" width="70" height="6" fill="#6b7280" rx="2"/>
  <rect x="15" y="231" width="70" height="6" fill="#6b7280" rx="2"/>

  <!-- Right Column (Main Content) -->
  <rect x="120" y="20" width="160" height="18" fill="#1f2937" rx="2"/>
  <rect x="120" y="50" width="160" height="8" fill="#6b7280" rx="2"/>
  <rect x="120" y="65" width="140" height="8" fill="#9ca3af" rx="2"/>
  <rect x="120" y="90" width="160" height="14" fill="#1f2937" rx="2"/>
  <rect x="120" y="115" width="160" height="8" fill="#6b7280" rx="2"/>
  <rect x="120" y="130" width="150" height="8" fill="#9ca3af" rx="2"/>
  <rect x="120" y="180" width="160" height="14" fill="#1f2937" rx="2"/>
  <rect x="120" y="205" width="160" height="8" fill="#6b7280" rx="2"/>
  <rect x="120" y="220" width="140" height="8" fill="#9ca3af" rx="2"/>
</svg>
