<svg width="300" height="400" xmlns="http://www.w3.org/2000/svg">
  <rect width="300" height="400" fill="#f9fafb"/>
  <!-- Compact header -->
  <rect x="20" y="20" width="260" height="25" fill="#1f2937" rx="2"/>
  <rect x="20" y="50" width="260" height="1" fill="#1f2937"/>

  <!-- Skills section (4-column grid) -->
  <rect x="20" y="65" width="260" height="14" fill="#1f2937" rx="2"/>
  <rect x="20" y="85" width="60" height="10" fill="#e5e7eb" rx="2"/>
  <rect x="85" y="85" width="60" height="10" fill="#e5e7eb" rx="2"/>
  <rect x="150" y="85" width="60" height="10" fill="#e5e7eb" rx="2"/>
  <rect x="215" y="85" width="60" height="10" fill="#e5e7eb" rx="2"/>
  <rect x="20" y="100" width="60" height="10" fill="#e5e7eb" rx="2"/>
  <rect x="85" y="100" width="60" height="10" fill="#e5e7eb" rx="2"/>

  <!-- Experience section (dense) -->
  <rect x="20" y="125" width="260" height="14" fill="#1f2937" rx="2"/>
  <rect x="20" y="145" width="200" height="8" fill="#6b7280" rx="2"/>
  <rect x="20" y="158" width="180" height="6" fill="#9ca3af" rx="2"/>
  <rect x="20" y="168" width="170" height="6" fill="#9ca3af" rx="2"/>

  <rect x="20" y="185" width="200" height="8" fill="#6b7280" rx="2"/>
  <rect x="20" y="198" width="180" height="6" fill="#9ca3af" rx="2"/>

  <!-- Education section (two-column) -->
  <rect x="20" y="220" width="260" height="14" fill="#1f2937" rx="2"/>
  <rect x="20" y="240" width="120" height="8" fill="#6b7280" rx="2"/>
  <rect x="20" y="253" width="100" height="6" fill="#9ca3af" rx="2"/>
  <rect x="160" y="240" width="120" height="8" fill="#6b7280" rx="2"/>
  <rect x="160" y="253" width="100" height="6" fill="#9ca3af" rx="2"/>

  <!-- Projects section -->
  <rect x="20" y="275" width="260" height="14" fill="#1f2937" rx="2"/>
  <rect x="20" y="295" width="180" height="8" fill="#6b7280" rx="2"/>
  <rect x="20" y="308" width="200" height="6" fill="#9ca3af" rx="2"/>
</svg>
