<svg width="300" height="400" xmlns="http://www.w3.org/2000/svg">
  <rect width="300" height="400" fill="#f9fafb"/>
  <rect x="20" y="20" width="260" height="40" fill="#1f2937" rx="2"/>
  <rect x="20" y="70" width="260" height="2" fill="#1f2937"/>
  <rect x="20" y="90" width="180" height="12" fill="#6b7280" rx="2"/>
  <rect x="20" y="110" width="150" height="12" fill="#9ca3af" rx="2"/>
  <rect x="20" y="140" width="260" height="18" fill="#1f2937" rx="2"/>
  <rect x="20" y="170" width="260" height="8" fill="#6b7280" rx="2"/>
  <rect x="20" y="185" width="240" height="8" fill="#9ca3af" rx="2"/>
  <rect x="20" y="200" width="250" height="8" fill="#9ca3af" rx="2"/>
  <rect x="20" y="230" width="260" height="18" fill="#1f2937" rx="2"/>
  <rect x="20" y="260" width="260" height="8" fill="#6b7280" rx="2"/>
  <rect x="20" y="275" width="220" height="8" fill="#9ca3af" rx="2"/>
  <rect x="20" y="290" width="240" height="8" fill="#9ca3af" rx="2"/>
  <rect x="20" y="320" width="260" height="18" fill="#1f2937" rx="2"/>
  <rect x="20" y="350" width="120" height="8" fill="#6b7280" rx="2"/>
  <rect x="150" y="350" width="130" height="8" fill="#6b7280" rx="2"/>
</svg>
